<svg xmlns="http://www.w3.org/2000/svg" xmlns:xlink="http://www.w3.org/1999/xlink" width="500" zoomAndPan="magnify" viewBox="0 0 375 374.999991" height="500" preserveAspectRatio="xMidYMid meet" version="1.2"><defs/><g id="f065d03fbe"><g style="fill:#f7dd0f;fill-opacity:1;"><g transform="translate(75.28125, 207.413461)"><path style="stroke:none" d="M 8.375 0 C 6.226562 0 4.570312 -0.765625 3.40625 -2.296875 C 2.238281 -3.828125 1.65625 -5.484375 1.65625 -7.265625 C 1.65625 -10.890625 2.570312 -14.398438 4.40625 -17.796875 C 6.25 -21.203125 8.488281 -24.101562 11.125 -26.5 C 12.414062 -27.601562 13.9375 -28.519531 15.6875 -29.25 C 17.4375 -29.988281 19.226562 -30.359375 21.0625 -30.359375 C 21.375 -30.359375 21.664062 -30.34375 21.9375 -30.3125 C 22.21875 -30.28125 22.507812 -30.265625 22.8125 -30.265625 C 23.363281 -30.265625 23.773438 -30.445312 24.046875 -30.8125 C 24.328125 -31.1875 24.53125 -31.585938 24.65625 -32.015625 C 24.957031 -32.867188 25.273438 -33.707031 25.609375 -34.53125 C 25.953125 -35.363281 26.3125 -36.210938 26.6875 -37.078125 C 27.113281 -37.867188 27.492188 -38.691406 27.828125 -39.546875 C 28.171875 -40.410156 28.554688 -41.273438 28.984375 -42.140625 C 29.160156 -42.503906 29.34375 -42.882812 29.53125 -43.28125 C 29.71875 -43.6875 29.898438 -44.070312 30.078125 -44.4375 C 30.265625 -44.863281 30.460938 -45.273438 30.671875 -45.671875 C 30.890625 -46.078125 31.125 -46.460938 31.375 -46.828125 C 31.800781 -47.628906 32.289062 -48.394531 32.84375 -49.125 C 33.394531 -49.863281 33.914062 -50.570312 34.40625 -51.25 C 34.957031 -51.914062 35.539062 -52.554688 36.15625 -53.171875 C 36.769531 -53.785156 37.414062 -54.335938 38.09375 -54.828125 C 38.757812 -55.253906 39.445312 -55.632812 40.15625 -55.96875 C 40.863281 -56.3125 41.613281 -56.484375 42.40625 -56.484375 C 43.332031 -56.484375 44.085938 -56.238281 44.671875 -55.75 C 45.253906 -55.257812 45.664062 -54.613281 45.90625 -53.8125 C 46.15625 -53.144531 46.28125 -52.378906 46.28125 -51.515625 C 46.28125 -50.234375 46.03125 -48.929688 45.53125 -47.609375 C 45.039062 -46.285156 44.582031 -45.070312 44.15625 -43.96875 C 43.476562 -42.195312 42.710938 -40.539062 41.859375 -39 C 41.003906 -37.46875 40.144531 -35.875 39.28125 -34.21875 C 38.425781 -32.5625 37.488281 -30.96875 36.46875 -29.4375 C 35.457031 -27.90625 34.429688 -26.34375 33.390625 -24.75 C 32.410156 -23.21875 31.351562 -21.726562 30.21875 -20.28125 C 29.082031 -18.84375 27.929688 -17.421875 26.765625 -16.015625 C 26.460938 -15.640625 26.21875 -15.113281 26.03125 -14.4375 C 25.851562 -13.769531 25.765625 -13.28125 25.765625 -12.96875 C 25.765625 -11.800781 26.007812 -10.664062 26.5 -9.5625 C 26.988281 -8.457031 27.691406 -7.90625 28.609375 -7.90625 C 29.472656 -7.90625 30.179688 -8.023438 30.734375 -8.265625 C 31.285156 -8.515625 31.863281 -8.890625 32.46875 -9.390625 C 33.207031 -9.878906 33.882812 -10.457031 34.5 -11.125 C 35.113281 -11.800781 35.695312 -12.476562 36.25 -13.15625 C 36.800781 -13.707031 37.351562 -14.347656 37.90625 -15.078125 C 38.457031 -15.816406 38.945312 -16.585938 39.375 -17.390625 C 39.863281 -18.179688 40.320312 -19.039062 40.75 -19.96875 C 40.9375 -20.332031 41.101562 -20.617188 41.25 -20.828125 C 41.40625 -21.046875 41.671875 -21.25 42.046875 -21.4375 C 42.347656 -21.5625 42.625 -21.625 42.875 -21.625 C 43.488281 -21.625 44.039062 -21.421875 44.53125 -21.015625 C 45.019531 -20.617188 45.265625 -20.050781 45.265625 -19.3125 C 45.265625 -18.707031 45.082031 -18.097656 44.71875 -17.484375 C 44.46875 -17.109375 44.203125 -16.644531 43.921875 -16.09375 C 43.648438 -15.539062 43.390625 -15.082031 43.140625 -14.71875 C 42.585938 -13.925781 42.082031 -13.160156 41.625 -12.421875 C 41.164062 -11.679688 40.628906 -10.945312 40.015625 -10.21875 C 38.972656 -8.863281 37.789062 -7.617188 36.46875 -6.484375 C 35.15625 -5.347656 33.734375 -4.414062 32.203125 -3.6875 C 30.910156 -3.070312 29.5 -2.765625 27.96875 -2.765625 C 26.988281 -2.765625 25.988281 -3.128906 24.96875 -3.859375 C 23.957031 -4.597656 23.117188 -5.582031 22.453125 -6.8125 C 22.265625 -7.050781 22.0625 -7.304688 21.84375 -7.578125 C 21.632812 -7.859375 21.375 -8 21.0625 -8 C 20.695312 -8 20.328125 -7.785156 19.953125 -7.359375 C 19.585938 -6.929688 19.253906 -6.5625 18.953125 -6.25 C 18.640625 -5.945312 18.316406 -5.640625 17.984375 -5.328125 C 17.648438 -5.023438 17.328125 -4.722656 17.015625 -4.421875 C 15.847656 -3.378906 14.515625 -2.378906 13.015625 -1.421875 C 11.515625 -0.472656 9.96875 0 8.375 0 Z M 26.5 -22.625 C 26.738281 -22.625 27.007812 -22.851562 27.3125 -23.3125 C 27.625 -23.78125 27.90625 -24.195312 28.15625 -24.5625 C 28.882812 -25.664062 29.753906 -27.015625 30.765625 -28.609375 C 31.785156 -30.203125 32.769531 -31.8125 33.71875 -33.4375 C 34.664062 -35.0625 35.445312 -36.457031 36.0625 -37.625 C 36.550781 -38.664062 37.085938 -39.738281 37.671875 -40.84375 C 38.253906 -41.945312 38.789062 -43.019531 39.28125 -44.0625 C 39.769531 -44.988281 40.257812 -46.078125 40.75 -47.328125 C 41.238281 -48.585938 41.484375 -49.492188 41.484375 -50.046875 C 41.484375 -50.535156 41.300781 -50.78125 40.9375 -50.78125 C 40.632812 -50.78125 40.269531 -50.566406 39.84375 -50.140625 C 39.53125 -49.773438 39.21875 -49.40625 38.90625 -49.03125 C 38.601562 -48.664062 38.300781 -48.269531 38 -47.84375 C 37.507812 -47.101562 37.003906 -46.347656 36.484375 -45.578125 C 35.960938 -44.816406 35.453125 -44.035156 34.953125 -43.234375 C 34.523438 -42.441406 34.082031 -41.644531 33.625 -40.84375 C 33.164062 -40.050781 32.722656 -39.253906 32.296875 -38.453125 C 31.804688 -37.535156 31.3125 -36.554688 30.8125 -35.515625 C 30.320312 -34.472656 29.894531 -33.457031 29.53125 -32.46875 C 29.226562 -31.550781 28.738281 -30.28125 28.0625 -28.65625 C 27.382812 -27.03125 26.925781 -25.726562 26.6875 -24.75 C 26.625 -24.5 26.515625 -24.082031 26.359375 -23.5 C 26.203125 -22.914062 26.25 -22.625 26.5 -22.625 Z M 8.46875 -4.6875 C 9.382812 -4.6875 10.253906 -4.976562 11.078125 -5.5625 C 11.910156 -6.144531 12.664062 -6.710938 13.34375 -7.265625 C 14.070312 -7.878906 14.742188 -8.507812 15.359375 -9.15625 C 15.972656 -9.800781 16.585938 -10.457031 17.203125 -11.125 C 17.503906 -11.5 17.820312 -11.851562 18.15625 -12.1875 C 18.5 -12.53125 18.828125 -12.882812 19.140625 -13.25 C 19.378906 -13.613281 19.648438 -13.960938 19.953125 -14.296875 C 20.265625 -14.640625 20.515625 -15.023438 20.703125 -15.453125 C 20.828125 -15.828125 20.890625 -16.226562 20.890625 -16.65625 C 20.941406 -17.269531 21.03125 -18.003906 21.15625 -18.859375 C 21.21875 -19.347656 21.28125 -19.773438 21.34375 -20.140625 C 21.40625 -20.515625 21.46875 -20.789062 21.53125 -20.96875 C 21.65625 -21.46875 21.773438 -21.960938 21.890625 -22.453125 C 22.015625 -22.941406 22.140625 -23.398438 22.265625 -23.828125 C 22.328125 -24.128906 22.359375 -24.40625 22.359375 -24.65625 C 22.359375 -25.332031 21.894531 -25.671875 20.96875 -25.671875 C 20.238281 -25.671875 19.566406 -25.609375 18.953125 -25.484375 C 18.460938 -25.296875 18 -25.09375 17.5625 -24.875 C 17.132812 -24.664062 16.738281 -24.410156 16.375 -24.109375 C 14.84375 -23.117188 13.445312 -21.875 12.1875 -20.375 C 10.925781 -18.875 9.867188 -17.328125 9.015625 -15.734375 C 8.828125 -15.304688 8.519531 -14.597656 8.09375 -13.609375 C 7.664062 -12.628906 7.265625 -11.554688 6.890625 -10.390625 C 6.523438 -9.222656 6.34375 -8.179688 6.34375 -7.265625 C 6.34375 -6.285156 6.554688 -5.609375 6.984375 -5.234375 C 7.421875 -4.867188 7.914062 -4.6875 8.46875 -4.6875 Z M 8.46875 -4.6875 "/></g></g><g style="fill:#f7dd0f;fill-opacity:1;"><g transform="translate(110.238302, 207.413461)"><path style="stroke:none" d="M 10.578125 0.734375 C 9.234375 0.734375 7.945312 0.441406 6.71875 -0.140625 C 5.488281 -0.722656 4.535156 -1.6875 3.859375 -3.03125 C 2.753906 -5.0625 2.203125 -7.148438 2.203125 -9.296875 C 2.203125 -10.210938 2.296875 -11.113281 2.484375 -12 C 2.671875 -12.894531 2.882812 -13.769531 3.125 -14.625 C 4.289062 -18.425781 6.285156 -21.707031 9.109375 -24.46875 C 10.765625 -26.0625 12.789062 -27.257812 15.1875 -28.0625 C 16.101562 -28.363281 16.988281 -28.820312 17.84375 -29.4375 C 19.007812 -30.351562 20.359375 -30.8125 21.890625 -30.8125 C 23.367188 -30.8125 24.566406 -30.320312 25.484375 -29.34375 C 26.398438 -28.363281 27.054688 -27.164062 27.453125 -25.75 C 27.859375 -24.34375 28.0625 -22.96875 28.0625 -21.625 C 28.0625 -20.695312 28 -19.742188 27.875 -18.765625 C 27.75 -17.785156 27.597656 -16.894531 27.421875 -16.09375 C 27.359375 -15.914062 27.28125 -15.6875 27.1875 -15.40625 C 27.09375 -15.132812 27.046875 -14.875 27.046875 -14.625 C 27.046875 -14.132812 27.257812 -13.890625 27.6875 -13.890625 C 28.125 -13.890625 28.613281 -14.007812 29.15625 -14.25 C 29.707031 -14.5 30.140625 -14.71875 30.453125 -14.90625 C 31.304688 -15.457031 32.117188 -16.066406 32.890625 -16.734375 C 33.660156 -17.410156 34.347656 -18.179688 34.953125 -19.046875 C 35.140625 -19.410156 35.320312 -19.710938 35.5 -19.953125 C 35.6875 -20.203125 35.84375 -20.453125 35.96875 -20.703125 C 36.09375 -20.878906 36.289062 -21.0625 36.5625 -21.25 C 36.84375 -21.4375 37.257812 -21.53125 37.8125 -21.53125 C 38.425781 -21.53125 38.976562 -21.34375 39.46875 -20.96875 C 39.957031 -20.601562 40.203125 -20.113281 40.203125 -19.5 C 40.203125 -18.945312 40.03125 -18.394531 39.6875 -17.84375 C 39.351562 -17.289062 39.035156 -16.800781 38.734375 -16.375 C 38.117188 -15.582031 37.394531 -14.753906 36.5625 -13.890625 C 35.738281 -13.035156 34.867188 -12.300781 33.953125 -11.6875 C 33.148438 -11.132812 32.332031 -10.640625 31.5 -10.203125 C 30.675781 -9.773438 29.804688 -9.378906 28.890625 -9.015625 C 27.910156 -8.648438 26.835938 -8.375 25.671875 -8.1875 C 24.804688 -8.0625 24.066406 -7.691406 23.453125 -7.078125 C 23.085938 -6.773438 22.765625 -6.421875 22.484375 -6.015625 C 22.210938 -5.617188 21.925781 -5.238281 21.625 -4.875 C 20.945312 -4.132812 20.207031 -3.429688 19.40625 -2.765625 C 18.0625 -1.660156 16.609375 -0.800781 15.046875 -0.1875 C 13.484375 0.425781 11.992188 0.734375 10.578125 0.734375 Z M 21.0625 -13.890625 C 21.5 -13.890625 21.851562 -14.242188 22.125 -14.953125 C 22.40625 -15.660156 22.601562 -16.289062 22.71875 -16.84375 C 22.96875 -17.9375 23.15625 -19.097656 23.28125 -20.328125 C 23.28125 -20.515625 23.296875 -20.742188 23.328125 -21.015625 C 23.359375 -21.296875 23.375 -21.617188 23.375 -21.984375 C 23.375 -22.847656 23.265625 -23.707031 23.046875 -24.5625 C 22.828125 -25.425781 22.320312 -25.859375 21.53125 -25.859375 C 21.039062 -25.859375 20.640625 -25.59375 20.328125 -25.0625 C 20.023438 -24.539062 19.78125 -24.066406 19.59375 -23.640625 C 19.351562 -23.023438 19.15625 -22.273438 19 -21.390625 C 18.84375 -20.503906 18.765625 -19.785156 18.765625 -19.234375 C 18.765625 -18.304688 18.890625 -17.445312 19.140625 -16.65625 C 19.316406 -16.28125 19.554688 -15.722656 19.859375 -14.984375 C 20.171875 -14.253906 20.570312 -13.890625 21.0625 -13.890625 Z M 11.125 -4.046875 C 11.988281 -4.046875 12.910156 -4.257812 13.890625 -4.6875 C 14.503906 -5 15.085938 -5.367188 15.640625 -5.796875 C 16.191406 -6.222656 16.742188 -6.679688 17.296875 -7.171875 C 17.597656 -7.484375 17.914062 -7.804688 18.25 -8.140625 C 18.59375 -8.472656 18.765625 -8.796875 18.765625 -9.109375 C 18.765625 -9.347656 18.65625 -9.5625 18.4375 -9.75 C 18.226562 -9.9375 18.03125 -10.117188 17.84375 -10.296875 C 17.226562 -10.910156 16.660156 -11.539062 16.140625 -12.1875 C 15.617188 -12.832031 15.207031 -13.582031 14.90625 -14.4375 C 14.59375 -15.113281 14.375 -15.847656 14.25 -16.640625 C 14.132812 -17.441406 14.078125 -18.582031 14.078125 -20.0625 C 14.078125 -20.238281 14.046875 -20.476562 13.984375 -20.78125 C 13.921875 -21.09375 13.738281 -21.25 13.4375 -21.25 C 13.125 -21.1875 12.785156 -20.957031 12.421875 -20.5625 C 12.054688 -20.164062 11.78125 -19.84375 11.59375 -19.59375 C 11.164062 -19.039062 10.703125 -18.425781 10.203125 -17.75 C 9.710938 -17.082031 9.316406 -16.378906 9.015625 -15.640625 C 8.585938 -14.660156 8.171875 -13.632812 7.765625 -12.5625 C 7.367188 -11.488281 7.171875 -10.367188 7.171875 -9.203125 C 7.171875 -8.648438 7.234375 -8.097656 7.359375 -7.546875 C 7.484375 -6.867188 7.710938 -6.222656 8.046875 -5.609375 C 8.390625 -4.992188 8.894531 -4.566406 9.5625 -4.328125 C 10.050781 -4.140625 10.570312 -4.046875 11.125 -4.046875 Z M 11.125 -4.046875 "/></g></g><g style="fill:#f7dd0f;fill-opacity:1;"><g transform="translate(140.043796, 207.413461)"><path style="stroke:none" d="M -6.15625 21.984375 C -7.082031 21.984375 -7.789062 21.617188 -8.28125 20.890625 C -8.46875 20.578125 -8.601562 20.222656 -8.6875 19.828125 C -8.78125 19.429688 -8.828125 19.046875 -8.828125 18.671875 C -8.828125 17.328125 -8.65625 16.054688 -8.3125 14.859375 C -7.976562 13.660156 -7.660156 12.539062 -7.359375 11.5 C -7.054688 10.269531 -6.65625 8.992188 -6.15625 7.671875 C -5.664062 6.359375 -5.207031 5.117188 -4.78125 3.953125 C -3.863281 1.679688 -2.898438 -0.566406 -1.890625 -2.796875 C -0.878906 -5.035156 0.117188 -7.289062 1.109375 -9.5625 C 2.085938 -11.832031 3.082031 -14.085938 4.09375 -16.328125 C 5.101562 -18.566406 6.007812 -20.851562 6.8125 -23.1875 C 7.175781 -24.351562 7.507812 -25.472656 7.8125 -26.546875 C 8.125 -27.617188 8.398438 -28.738281 8.640625 -29.90625 C 8.765625 -30.332031 8.859375 -30.820312 8.921875 -31.375 C 8.984375 -31.925781 9.046875 -32.476562 9.109375 -33.03125 C 9.234375 -33.820312 9.476562 -34.476562 9.84375 -35 C 10.207031 -35.519531 10.789062 -35.78125 11.59375 -35.78125 C 11.957031 -35.78125 12.351562 -35.6875 12.78125 -35.5 C 13.21875 -35.320312 13.523438 -35.082031 13.703125 -34.78125 C 13.953125 -34.34375 14.109375 -33.894531 14.171875 -33.4375 C 14.234375 -32.976562 14.265625 -32.535156 14.265625 -32.109375 C 14.265625 -30.640625 14.078125 -29.164062 13.703125 -27.6875 C 13.640625 -27.507812 13.5625 -27.234375 13.46875 -26.859375 C 13.382812 -26.492188 13.34375 -26.21875 13.34375 -26.03125 C 13.34375 -25.601562 13.492188 -25.390625 13.796875 -25.390625 C 14.171875 -25.390625 14.632812 -25.664062 15.1875 -26.21875 C 15.738281 -26.769531 16.226562 -27.226562 16.65625 -27.59375 C 17.632812 -28.332031 18.644531 -28.976562 19.6875 -29.53125 C 20.425781 -29.957031 21.222656 -30.289062 22.078125 -30.53125 C 22.941406 -30.78125 23.769531 -30.90625 24.5625 -30.90625 C 26.957031 -30.90625 28.550781 -30.140625 29.34375 -28.609375 C 30.144531 -27.078125 30.546875 -25.390625 30.546875 -23.546875 C 30.546875 -22.878906 30.515625 -22.222656 30.453125 -21.578125 C 30.390625 -20.929688 30.296875 -20.332031 30.171875 -19.78125 C 29.992188 -18.550781 29.6875 -17.351562 29.25 -16.1875 C 28.820312 -15.019531 28.363281 -13.859375 27.875 -12.703125 C 27.632812 -12.203125 27.375 -11.707031 27.09375 -11.21875 C 26.820312 -10.726562 26.5625 -10.238281 26.3125 -9.75 C 26.1875 -9.5625 26.046875 -9.316406 25.890625 -9.015625 C 25.742188 -8.710938 25.671875 -8.46875 25.671875 -8.28125 C 25.671875 -8.03125 25.789062 -7.90625 26.03125 -7.90625 C 26.46875 -7.90625 26.945312 -8.054688 27.46875 -8.359375 C 27.988281 -8.671875 28.429688 -8.921875 28.796875 -9.109375 C 29.285156 -9.472656 29.789062 -9.851562 30.3125 -10.25 C 30.832031 -10.65625 31.304688 -11.070312 31.734375 -11.5 C 32.597656 -12.238281 33.363281 -13.066406 34.03125 -13.984375 C 34.707031 -14.898438 35.382812 -15.820312 36.0625 -16.75 C 36.425781 -17.238281 36.757812 -17.800781 37.0625 -18.4375 C 37.375 -19.082031 37.71875 -19.710938 38.09375 -20.328125 C 38.394531 -20.878906 38.773438 -21.203125 39.234375 -21.296875 C 39.691406 -21.390625 40.015625 -21.4375 40.203125 -21.4375 C 40.753906 -21.4375 41.257812 -21.21875 41.71875 -20.78125 C 42.175781 -20.351562 42.40625 -19.835938 42.40625 -19.234375 C 42.40625 -18.859375 42.328125 -18.5 42.171875 -18.15625 C 42.023438 -17.820312 41.859375 -17.472656 41.671875 -17.109375 C 40.503906 -15.085938 39.203125 -13.1875 37.765625 -11.40625 C 36.328125 -9.625 34.6875 -8.03125 32.84375 -6.625 C 31.988281 -5.945312 31.023438 -5.285156 29.953125 -4.640625 C 28.878906 -4.003906 27.816406 -3.46875 26.765625 -3.03125 C 26.097656 -2.789062 25.179688 -2.4375 24.015625 -1.96875 C 22.847656 -1.507812 21.34375 -1.066406 19.5 -0.640625 C 18.519531 -0.398438 17.460938 -0.203125 16.328125 -0.046875 C 15.191406 0.109375 13.953125 0.1875 12.609375 0.1875 C 11.679688 0.1875 10.710938 0.0664062 9.703125 -0.171875 C 8.691406 -0.421875 7.972656 -0.914062 7.546875 -1.65625 C 7.296875 -2.082031 7.171875 -2.507812 7.171875 -2.9375 C 7.171875 -3.738281 7.539062 -4.304688 8.28125 -4.640625 C 9.019531 -4.984375 9.785156 -5.15625 10.578125 -5.15625 C 11.128906 -5.15625 11.695312 -5.09375 12.28125 -4.96875 C 12.863281 -4.84375 13.429688 -4.78125 13.984375 -4.78125 C 14.535156 -4.78125 15.039062 -4.859375 15.5 -5.015625 C 15.957031 -5.171875 16.40625 -5.335938 16.84375 -5.515625 C 17.820312 -6.066406 18.660156 -6.847656 19.359375 -7.859375 C 20.066406 -8.878906 20.695312 -9.847656 21.25 -10.765625 C 22.351562 -12.722656 23.300781 -14.882812 24.09375 -17.25 C 24.894531 -19.613281 25.328125 -21.679688 25.390625 -23.453125 C 25.390625 -24.191406 25.265625 -24.835938 25.015625 -25.390625 C 24.773438 -25.941406 24.253906 -26.21875 23.453125 -26.21875 C 23.023438 -26.21875 22.597656 -26.15625 22.171875 -26.03125 C 21.742188 -25.914062 21.375 -25.765625 21.0625 -25.578125 C 20.019531 -25.085938 19.113281 -24.457031 18.34375 -23.6875 C 17.582031 -22.925781 16.773438 -22.113281 15.921875 -21.25 C 15.117188 -20.394531 14.300781 -19.535156 13.46875 -18.671875 C 12.644531 -17.816406 11.863281 -16.929688 11.125 -16.015625 C 10.457031 -15.148438 9.816406 -14.242188 9.203125 -13.296875 C 8.585938 -12.347656 8.003906 -11.378906 7.453125 -10.390625 C 6.285156 -8.367188 5.210938 -6.316406 4.234375 -4.234375 C 3.253906 -2.148438 2.300781 -0.0351562 1.375 2.109375 C 0.394531 4.316406 -0.472656 6.539062 -1.234375 8.78125 C -2.003906 11.019531 -2.632812 13.304688 -3.125 15.640625 C -3.3125 16.253906 -3.460938 16.851562 -3.578125 17.4375 C -3.703125 18.019531 -3.796875 18.585938 -3.859375 19.140625 C -3.984375 19.929688 -4.203125 20.570312 -4.515625 21.0625 C -4.878906 21.675781 -5.425781 21.984375 -6.15625 21.984375 Z M -6.15625 21.984375 "/></g></g><g style="fill:#f7dd0f;fill-opacity:1;"><g transform="translate(172.149095, 207.413461)"><path style="stroke:none" d="M 11.125 0.1875 C 9.289062 0.1875 7.546875 -0.179688 5.890625 -0.921875 C 4.234375 -1.660156 3.003906 -2.976562 2.203125 -4.875 C 1.773438 -6.039062 1.5625 -7.296875 1.5625 -8.640625 C 1.5625 -10.609375 1.972656 -12.554688 2.796875 -14.484375 C 3.628906 -16.421875 4.535156 -18.1875 5.515625 -19.78125 C 6.804688 -21.925781 8.367188 -23.945312 10.203125 -25.84375 C 12.046875 -27.75 14.132812 -29.191406 16.46875 -30.171875 C 17.019531 -30.421875 17.644531 -30.601562 18.34375 -30.71875 C 19.050781 -30.84375 19.710938 -30.90625 20.328125 -30.90625 C 21.804688 -30.90625 23.082031 -30.429688 24.15625 -29.484375 C 25.226562 -28.535156 25.765625 -27.296875 25.765625 -25.765625 C 25.765625 -24.722656 25.53125 -23.675781 25.0625 -22.625 C 24.601562 -21.582031 24.097656 -20.632812 23.546875 -19.78125 C 22.816406 -18.800781 21.957031 -17.894531 20.96875 -17.0625 C 19.988281 -16.238281 18.976562 -15.488281 17.9375 -14.8125 C 17.382812 -14.445312 16.832031 -14.09375 16.28125 -13.75 C 15.726562 -13.414062 15.144531 -13.125 14.53125 -12.875 C 13.914062 -12.632812 13.285156 -12.421875 12.640625 -12.234375 C 12.003906 -12.046875 11.378906 -11.863281 10.765625 -11.6875 C 10.210938 -11.5625 9.597656 -11.40625 8.921875 -11.21875 C 8.242188 -11.039062 7.691406 -10.765625 7.265625 -10.390625 C 6.898438 -10.023438 6.71875 -9.441406 6.71875 -8.640625 C 6.71875 -7.109375 7.191406 -6.066406 8.140625 -5.515625 C 9.085938 -4.960938 10.113281 -4.6875 11.21875 -4.6875 C 12.757812 -4.6875 14.351562 -4.992188 16 -5.609375 C 17.65625 -6.222656 19.160156 -6.957031 20.515625 -7.8125 C 21.617188 -8.488281 22.613281 -9.238281 23.5 -10.0625 C 24.394531 -10.894531 25.269531 -11.742188 26.125 -12.609375 C 27.050781 -13.523438 27.910156 -14.519531 28.703125 -15.59375 C 29.503906 -16.664062 30.238281 -17.753906 30.90625 -18.859375 C 31.21875 -19.347656 31.523438 -19.867188 31.828125 -20.421875 C 32.140625 -20.972656 32.570312 -21.375 33.125 -21.625 C 33.488281 -21.800781 33.851562 -21.890625 34.21875 -21.890625 C 34.957031 -21.890625 35.570312 -21.613281 36.0625 -21.0625 C 36.3125 -20.757812 36.4375 -20.363281 36.4375 -19.875 C 36.4375 -19.5 36.375 -19.171875 36.25 -18.890625 C 36.125 -18.617188 35.96875 -18.300781 35.78125 -17.9375 C 35.476562 -17.382812 35.113281 -16.785156 34.6875 -16.140625 C 34.257812 -15.503906 33.859375 -14.910156 33.484375 -14.359375 C 32.753906 -13.191406 32.003906 -12.097656 31.234375 -11.078125 C 30.460938 -10.066406 29.617188 -9.101562 28.703125 -8.1875 C 26.859375 -6.289062 24.785156 -4.632812 22.484375 -3.21875 C 20.191406 -1.8125 17.757812 -0.832031 15.1875 -0.28125 C 13.832031 0.03125 12.476562 0.1875 11.125 0.1875 Z M 10.390625 -16.46875 C 11.003906 -16.46875 11.648438 -16.632812 12.328125 -16.96875 C 13.003906 -17.3125 13.585938 -17.601562 14.078125 -17.84375 C 14.628906 -18.15625 15.148438 -18.507812 15.640625 -18.90625 C 16.128906 -19.300781 16.585938 -19.6875 17.015625 -20.0625 C 17.203125 -20.238281 17.601562 -20.632812 18.21875 -21.25 C 18.832031 -21.863281 19.414062 -22.519531 19.96875 -23.21875 C 20.519531 -23.925781 20.796875 -24.53125 20.796875 -25.03125 C 20.796875 -25.394531 20.6875 -25.625 20.46875 -25.71875 C 20.25 -25.8125 20.019531 -25.859375 19.78125 -25.859375 C 19.289062 -25.859375 18.722656 -25.71875 18.078125 -25.4375 C 17.429688 -25.164062 16.894531 -24.875 16.46875 -24.5625 C 15.914062 -24.195312 15.410156 -23.828125 14.953125 -23.453125 C 14.492188 -23.085938 14.019531 -22.660156 13.53125 -22.171875 C 12.664062 -21.316406 11.835938 -20.304688 11.046875 -19.140625 C 10.921875 -18.953125 10.703125 -18.628906 10.390625 -18.171875 C 10.085938 -17.710938 9.9375 -17.328125 9.9375 -17.015625 C 9.9375 -16.648438 10.085938 -16.46875 10.390625 -16.46875 Z M 10.390625 -16.46875 "/></g></g><g style="fill:#f7dd0f;fill-opacity:1;"><g transform="translate(197.998917, 207.413461)"><path style="stroke:none" d="M 9.390625 0 C 7.910156 0 6.617188 -0.398438 5.515625 -1.203125 C 4.472656 -1.929688 3.675781 -2.878906 3.125 -4.046875 C 2.570312 -5.210938 2.296875 -6.410156 2.296875 -7.640625 C 2.296875 -9.472656 2.554688 -11.328125 3.078125 -13.203125 C 3.597656 -15.078125 4.195312 -16.898438 4.875 -18.671875 C 5.550781 -20.265625 6.238281 -21.828125 6.9375 -23.359375 C 7.644531 -24.898438 8.335938 -26.46875 9.015625 -28.0625 C 9.078125 -28.25 9.164062 -28.476562 9.28125 -28.75 C 9.40625 -29.019531 9.46875 -29.28125 9.46875 -29.53125 C 9.46875 -29.957031 9.285156 -30.21875 8.921875 -30.3125 C 8.554688 -30.40625 8.1875 -30.515625 7.8125 -30.640625 C 7.207031 -30.878906 6.6875 -31.179688 6.25 -31.546875 C 5.820312 -31.921875 5.609375 -32.414062 5.609375 -33.03125 C 5.609375 -34.132812 6.003906 -34.773438 6.796875 -34.953125 C 7.597656 -35.140625 8.367188 -35.234375 9.109375 -35.234375 C 9.296875 -35.234375 9.570312 -35.25 9.9375 -35.28125 C 10.300781 -35.3125 10.546875 -35.328125 10.671875 -35.328125 C 11.285156 -35.328125 11.742188 -35.390625 12.046875 -35.515625 C 12.359375 -35.640625 12.664062 -35.976562 12.96875 -36.53125 C 13.394531 -37.195312 13.773438 -37.914062 14.109375 -38.6875 C 14.453125 -39.457031 14.8125 -40.207031 15.1875 -40.9375 C 15.550781 -41.675781 15.914062 -42.410156 16.28125 -43.140625 C 16.65625 -43.878906 17.023438 -44.585938 17.390625 -45.265625 C 17.753906 -45.941406 18.164062 -46.660156 18.625 -47.421875 C 19.082031 -48.191406 19.5625 -48.851562 20.0625 -49.40625 C 20.300781 -49.644531 20.585938 -49.859375 20.921875 -50.046875 C 21.265625 -50.234375 21.710938 -50.328125 22.265625 -50.328125 C 23.054688 -50.328125 23.671875 -49.957031 24.109375 -49.21875 C 24.285156 -48.851562 24.375 -48.457031 24.375 -48.03125 C 24.375 -47.476562 24.21875 -46.894531 23.90625 -46.28125 C 23.601562 -45.664062 23.300781 -45.113281 23 -44.625 C 22.632812 -43.945312 22.265625 -43.269531 21.890625 -42.59375 C 21.523438 -41.914062 21.160156 -41.210938 20.796875 -40.484375 C 20.609375 -40.109375 20.421875 -39.738281 20.234375 -39.375 C 20.054688 -39.007812 19.875 -38.640625 19.6875 -38.265625 C 19.5 -37.960938 19.3125 -37.625 19.125 -37.25 C 18.945312 -36.882812 18.859375 -36.519531 18.859375 -36.15625 C 18.921875 -35.539062 19.441406 -35.203125 20.421875 -35.140625 C 20.609375 -35.140625 20.898438 -35.140625 21.296875 -35.140625 C 21.691406 -35.140625 21.984375 -35.140625 22.171875 -35.140625 C 22.234375 -35.140625 22.320312 -35.140625 22.4375 -35.140625 C 22.5625 -35.140625 22.6875 -35.140625 22.8125 -35.140625 C 23.125 -35.140625 23.445312 -35.125 23.78125 -35.09375 C 24.113281 -35.0625 24.4375 -35.015625 24.75 -34.953125 C 25.238281 -34.710938 25.554688 -34.375 25.703125 -33.9375 C 25.859375 -33.507812 25.9375 -33.175781 25.9375 -32.9375 C 25.9375 -32.320312 25.738281 -31.785156 25.34375 -31.328125 C 24.945312 -30.867188 24.441406 -30.578125 23.828125 -30.453125 C 23.460938 -30.328125 23.078125 -30.25 22.671875 -30.21875 C 22.273438 -30.1875 21.894531 -30.171875 21.53125 -30.171875 C 20.488281 -30.171875 19.707031 -30.203125 19.1875 -30.265625 C 18.664062 -30.328125 18.128906 -30.359375 17.578125 -30.359375 C 17.140625 -30.359375 16.738281 -30.296875 16.375 -30.171875 C 16.007812 -30.046875 15.671875 -29.800781 15.359375 -29.4375 C 15.179688 -29.195312 15.015625 -28.90625 14.859375 -28.5625 C 14.703125 -28.226562 14.5625 -27.90625 14.4375 -27.59375 C 14.257812 -27.226562 14.046875 -26.769531 13.796875 -26.21875 C 13.554688 -25.664062 13.34375 -25.207031 13.15625 -24.84375 C 12.414062 -23.3125 11.753906 -21.820312 11.171875 -20.375 C 10.585938 -18.9375 10.019531 -17.421875 9.46875 -15.828125 C 9.164062 -15.023438 8.875 -14.207031 8.59375 -13.375 C 8.320312 -12.550781 8.125 -11.742188 8 -10.953125 C 7.9375 -10.398438 7.859375 -9.863281 7.765625 -9.34375 C 7.679688 -8.820312 7.640625 -8.285156 7.640625 -7.734375 C 7.640625 -6.742188 7.867188 -6.050781 8.328125 -5.65625 C 8.785156 -5.257812 9.289062 -5.0625 9.84375 -5.0625 C 10.757812 -5.0625 11.753906 -5.351562 12.828125 -5.9375 C 13.898438 -6.519531 14.6875 -6.992188 15.1875 -7.359375 C 16.34375 -8.335938 17.457031 -9.410156 18.53125 -10.578125 C 19.601562 -11.742188 20.601562 -12.910156 21.53125 -14.078125 C 22.019531 -14.753906 22.492188 -15.425781 22.953125 -16.09375 C 23.410156 -16.769531 23.851562 -17.445312 24.28125 -18.125 C 24.46875 -18.425781 24.664062 -18.773438 24.875 -19.171875 C 25.09375 -19.578125 25.296875 -19.960938 25.484375 -20.328125 C 25.972656 -21.191406 26.675781 -21.625 27.59375 -21.625 C 28.207031 -21.625 28.726562 -21.363281 29.15625 -20.84375 C 29.59375 -20.320312 29.8125 -19.753906 29.8125 -19.140625 C 29.8125 -18.703125 29.71875 -18.269531 29.53125 -17.84375 C 29.28125 -17.414062 28.988281 -16.878906 28.65625 -16.234375 C 28.320312 -15.585938 28.03125 -15.113281 27.78125 -14.8125 C 26.988281 -13.40625 26.097656 -12.039062 25.109375 -10.71875 C 24.128906 -9.394531 23.085938 -8.148438 21.984375 -6.984375 C 19.773438 -4.535156 17.257812 -2.632812 14.4375 -1.28125 C 13.644531 -0.914062 12.816406 -0.609375 11.953125 -0.359375 C 11.097656 -0.117188 10.242188 0 9.390625 0 Z M 9.390625 0 "/></g></g><g style="fill:#f7dd0f;fill-opacity:1;"><g transform="translate(217.68526, 207.413461)"><path style="stroke:none" d="M 11.125 0.1875 C 9.289062 0.1875 7.546875 -0.179688 5.890625 -0.921875 C 4.234375 -1.660156 3.003906 -2.976562 2.203125 -4.875 C 1.773438 -6.039062 1.5625 -7.296875 1.5625 -8.640625 C 1.5625 -10.609375 1.972656 -12.554688 2.796875 -14.484375 C 3.628906 -16.421875 4.535156 -18.1875 5.515625 -19.78125 C 6.804688 -21.925781 8.367188 -23.945312 10.203125 -25.84375 C 12.046875 -27.75 14.132812 -29.191406 16.46875 -30.171875 C 17.019531 -30.421875 17.644531 -30.601562 18.34375 -30.71875 C 19.050781 -30.84375 19.710938 -30.90625 20.328125 -30.90625 C 21.804688 -30.90625 23.082031 -30.429688 24.15625 -29.484375 C 25.226562 -28.535156 25.765625 -27.296875 25.765625 -25.765625 C 25.765625 -24.722656 25.53125 -23.675781 25.0625 -22.625 C 24.601562 -21.582031 24.097656 -20.632812 23.546875 -19.78125 C 22.816406 -18.800781 21.957031 -17.894531 20.96875 -17.0625 C 19.988281 -16.238281 18.976562 -15.488281 17.9375 -14.8125 C 17.382812 -14.445312 16.832031 -14.09375 16.28125 -13.75 C 15.726562 -13.414062 15.144531 -13.125 14.53125 -12.875 C 13.914062 -12.632812 13.285156 -12.421875 12.640625 -12.234375 C 12.003906 -12.046875 11.378906 -11.863281 10.765625 -11.6875 C 10.210938 -11.5625 9.597656 -11.40625 8.921875 -11.21875 C 8.242188 -11.039062 7.691406 -10.765625 7.265625 -10.390625 C 6.898438 -10.023438 6.71875 -9.441406 6.71875 -8.640625 C 6.71875 -7.109375 7.191406 -6.066406 8.140625 -5.515625 C 9.085938 -4.960938 10.113281 -4.6875 11.21875 -4.6875 C 12.757812 -4.6875 14.351562 -4.992188 16 -5.609375 C 17.65625 -6.222656 19.160156 -6.957031 20.515625 -7.8125 C 21.617188 -8.488281 22.613281 -9.238281 23.5 -10.0625 C 24.394531 -10.894531 25.269531 -11.742188 26.125 -12.609375 C 27.050781 -13.523438 27.910156 -14.519531 28.703125 -15.59375 C 29.503906 -16.664062 30.238281 -17.753906 30.90625 -18.859375 C 31.21875 -19.347656 31.523438 -19.867188 31.828125 -20.421875 C 32.140625 -20.972656 32.570312 -21.375 33.125 -21.625 C 33.488281 -21.800781 33.851562 -21.890625 34.21875 -21.890625 C 34.957031 -21.890625 35.570312 -21.613281 36.0625 -21.0625 C 36.3125 -20.757812 36.4375 -20.363281 36.4375 -19.875 C 36.4375 -19.5 36.375 -19.171875 36.25 -18.890625 C 36.125 -18.617188 35.96875 -18.300781 35.78125 -17.9375 C 35.476562 -17.382812 35.113281 -16.785156 34.6875 -16.140625 C 34.257812 -15.503906 33.859375 -14.910156 33.484375 -14.359375 C 32.753906 -13.191406 32.003906 -12.097656 31.234375 -11.078125 C 30.460938 -10.066406 29.617188 -9.101562 28.703125 -8.1875 C 26.859375 -6.289062 24.785156 -4.632812 22.484375 -3.21875 C 20.191406 -1.8125 17.757812 -0.832031 15.1875 -0.28125 C 13.832031 0.03125 12.476562 0.1875 11.125 0.1875 Z M 10.390625 -16.46875 C 11.003906 -16.46875 11.648438 -16.632812 12.328125 -16.96875 C 13.003906 -17.3125 13.585938 -17.601562 14.078125 -17.84375 C 14.628906 -18.15625 15.148438 -18.507812 15.640625 -18.90625 C 16.128906 -19.300781 16.585938 -19.6875 17.015625 -20.0625 C 17.203125 -20.238281 17.601562 -20.632812 18.21875 -21.25 C 18.832031 -21.863281 19.414062 -22.519531 19.96875 -23.21875 C 20.519531 -23.925781 20.796875 -24.53125 20.796875 -25.03125 C 20.796875 -25.394531 20.6875 -25.625 20.46875 -25.71875 C 20.25 -25.8125 20.019531 -25.859375 19.78125 -25.859375 C 19.289062 -25.859375 18.722656 -25.71875 18.078125 -25.4375 C 17.429688 -25.164062 16.894531 -24.875 16.46875 -24.5625 C 15.914062 -24.195312 15.410156 -23.828125 14.953125 -23.453125 C 14.492188 -23.085938 14.019531 -22.660156 13.53125 -22.171875 C 12.664062 -21.316406 11.835938 -20.304688 11.046875 -19.140625 C 10.921875 -18.953125 10.703125 -18.628906 10.390625 -18.171875 C 10.085938 -17.710938 9.9375 -17.328125 9.9375 -17.015625 C 9.9375 -16.648438 10.085938 -16.46875 10.390625 -16.46875 Z M 10.390625 -16.46875 "/></g></g><g style="fill:#f7dd0f;fill-opacity:1;"><g transform="translate(243.535081, 207.413461)"><path style="stroke:none" d="M 12.046875 0.546875 C 10.765625 0.546875 9.398438 0.253906 7.953125 -0.328125 C 6.515625 -0.910156 5.335938 -1.753906 4.421875 -2.859375 C 3.617188 -3.710938 3.046875 -4.691406 2.703125 -5.796875 C 2.367188 -6.898438 2.203125 -8.066406 2.203125 -9.296875 C 2.203125 -10.953125 2.460938 -12.609375 2.984375 -14.265625 C 3.503906 -15.921875 4.164062 -17.484375 4.96875 -18.953125 C 5.707031 -20.242188 6.566406 -21.5625 7.546875 -22.90625 C 8.523438 -24.257812 9.566406 -25.425781 10.671875 -26.40625 C 11.773438 -27.445312 12.96875 -28.394531 14.25 -29.25 C 15.539062 -30.113281 16.953125 -30.695312 18.484375 -31 C 19.035156 -31.125 19.585938 -31.1875 20.140625 -31.1875 C 21.003906 -31.1875 21.863281 -31.035156 22.71875 -30.734375 C 23.882812 -30.296875 24.867188 -29.523438 25.671875 -28.421875 C 26.347656 -27.503906 26.6875 -26.460938 26.6875 -25.296875 C 26.6875 -24.441406 26.53125 -23.613281 26.21875 -22.8125 C 25.914062 -22.019531 25.519531 -21.253906 25.03125 -20.515625 C 24.65625 -19.960938 24.238281 -19.394531 23.78125 -18.8125 C 23.320312 -18.226562 22.785156 -17.785156 22.171875 -17.484375 C 21.742188 -17.234375 21.285156 -17.109375 20.796875 -17.109375 C 20.117188 -17.109375 19.5625 -17.335938 19.125 -17.796875 C 18.695312 -18.253906 18.484375 -18.789062 18.484375 -19.40625 C 18.484375 -19.894531 18.632812 -20.367188 18.9375 -20.828125 C 19.25 -21.296875 19.59375 -21.710938 19.96875 -22.078125 C 20.332031 -22.503906 20.742188 -23.007812 21.203125 -23.59375 C 21.660156 -24.175781 21.890625 -24.742188 21.890625 -25.296875 C 21.890625 -26.035156 21.460938 -26.40625 20.609375 -26.40625 C 20.179688 -26.40625 19.75 -26.328125 19.3125 -26.171875 C 18.882812 -26.015625 18.519531 -25.878906 18.21875 -25.765625 C 16.925781 -25.148438 15.695312 -24.289062 14.53125 -23.1875 C 12.257812 -21.039062 10.484375 -18.617188 9.203125 -15.921875 C 8.523438 -14.628906 8.003906 -13.28125 7.640625 -11.875 C 7.390625 -10.882812 7.265625 -9.867188 7.265625 -8.828125 C 7.265625 -7.234375 7.753906 -6.128906 8.734375 -5.515625 C 9.722656 -4.898438 10.828125 -4.59375 12.046875 -4.59375 C 13.828125 -4.59375 15.578125 -4.988281 17.296875 -5.78125 C 19.015625 -6.582031 20.609375 -7.535156 22.078125 -8.640625 C 23.242188 -9.503906 24.347656 -10.472656 25.390625 -11.546875 C 26.429688 -12.617188 27.414062 -13.707031 28.34375 -14.8125 C 29.382812 -16.039062 30.332031 -17.296875 31.1875 -18.578125 C 31.550781 -19.128906 31.851562 -19.617188 32.09375 -20.046875 C 32.34375 -20.484375 32.625 -20.882812 32.9375 -21.25 C 33.300781 -21.800781 33.820312 -22.078125 34.5 -22.078125 C 35.113281 -22.078125 35.664062 -21.816406 36.15625 -21.296875 C 36.644531 -20.773438 36.890625 -20.300781 36.890625 -19.875 C 36.890625 -19.445312 36.75 -18.941406 36.46875 -18.359375 C 36.195312 -17.773438 35.941406 -17.296875 35.703125 -16.921875 C 34.960938 -15.703125 34.191406 -14.554688 33.390625 -13.484375 C 32.597656 -12.410156 31.738281 -11.320312 30.8125 -10.21875 C 28.851562 -8.007812 26.722656 -6.015625 24.421875 -4.234375 C 22.117188 -2.453125 19.59375 -1.101562 16.84375 -0.1875 C 16.164062 0.0625 15.378906 0.242188 14.484375 0.359375 C 13.597656 0.484375 12.785156 0.546875 12.046875 0.546875 Z M 12.046875 0.546875 "/></g></g><g style="fill:#f7dd0f;fill-opacity:1;"><g transform="translate(269.936862, 207.413461)"><path style="stroke:none" d="M 2.03125 0 C 1.226562 0 0.6875 -0.226562 0.40625 -0.6875 C 0.132812 -1.144531 0 -1.679688 0 -2.296875 C 0 -2.785156 0.0625 -3.289062 0.1875 -3.8125 C 0.3125 -4.332031 0.460938 -4.78125 0.640625 -5.15625 C 1.066406 -6.257812 1.460938 -7.378906 1.828125 -8.515625 C 2.203125 -9.648438 2.601562 -10.769531 3.03125 -11.875 C 3.40625 -13.03125 3.789062 -14.191406 4.1875 -15.359375 C 4.582031 -16.523438 4.992188 -17.691406 5.421875 -18.859375 C 5.859375 -20.023438 6.289062 -21.097656 6.71875 -22.078125 C 7.144531 -23.117188 7.359375 -24.007812 7.359375 -24.75 C 7.359375 -24.875 7.328125 -25.117188 7.265625 -25.484375 C 7.203125 -25.847656 7.171875 -26.125 7.171875 -26.3125 C 7.171875 -26.863281 7.414062 -27.414062 7.90625 -27.96875 C 8.28125 -28.394531 8.664062 -28.757812 9.0625 -29.0625 C 9.457031 -29.375 9.8125 -29.742188 10.125 -30.171875 C 10.363281 -30.597656 10.585938 -31.054688 10.796875 -31.546875 C 11.015625 -32.046875 11.21875 -32.539062 11.40625 -33.03125 C 11.65625 -33.582031 11.882812 -34.132812 12.09375 -34.6875 C 12.3125 -35.238281 12.539062 -35.789062 12.78125 -36.34375 C 14.5 -40.507812 16.648438 -44.492188 19.234375 -48.296875 C 19.960938 -49.273438 20.800781 -50.347656 21.75 -51.515625 C 22.707031 -52.679688 23.769531 -53.675781 24.9375 -54.5 C 26.101562 -55.332031 27.359375 -55.75 28.703125 -55.75 C 30.054688 -55.75 31.082031 -55.273438 31.78125 -54.328125 C 32.488281 -53.378906 32.84375 -52.257812 32.84375 -50.96875 C 32.84375 -49.925781 32.6875 -48.867188 32.375 -47.796875 C 32.070312 -46.722656 31.675781 -45.722656 31.1875 -44.796875 C 30.144531 -42.773438 28.945312 -40.90625 27.59375 -39.1875 C 26.925781 -38.332031 26.253906 -37.535156 25.578125 -36.796875 C 24.898438 -36.066406 24.191406 -35.300781 23.453125 -34.5 C 21.859375 -32.78125 20.144531 -31.15625 18.3125 -29.625 C 17.875 -29.3125 17.472656 -29.019531 17.109375 -28.75 C 16.742188 -28.476562 16.378906 -28.1875 16.015625 -27.875 C 15.515625 -27.507812 15.019531 -27.125 14.53125 -26.71875 C 14.039062 -26.320312 13.613281 -25.878906 13.25 -25.390625 C 12.9375 -25.023438 12.6875 -24.582031 12.5 -24.0625 C 12.320312 -23.539062 12.140625 -23.035156 11.953125 -22.546875 C 11.648438 -21.929688 11.375 -21.269531 11.125 -20.5625 C 10.882812 -19.851562 10.734375 -19.316406 10.671875 -18.953125 C 10.671875 -18.585938 10.796875 -18.40625 11.046875 -18.40625 C 11.285156 -18.40625 11.5625 -18.617188 11.875 -19.046875 C 12.113281 -19.410156 12.367188 -19.773438 12.640625 -20.140625 C 12.921875 -20.515625 13.09375 -20.765625 13.15625 -20.890625 C 13.519531 -21.378906 13.898438 -21.851562 14.296875 -22.3125 C 14.703125 -22.769531 15.117188 -23.210938 15.546875 -23.640625 C 16.953125 -25.234375 18.59375 -26.78125 20.46875 -28.28125 C 22.34375 -29.789062 24.382812 -30.546875 26.59375 -30.546875 C 27.9375 -30.546875 29.128906 -30.066406 30.171875 -29.109375 C 31.210938 -28.160156 31.734375 -26.828125 31.734375 -25.109375 C 31.734375 -24.253906 31.625 -23.410156 31.40625 -22.578125 C 31.195312 -21.753906 30.941406 -20.972656 30.640625 -20.234375 C 30.203125 -19.191406 29.722656 -18.179688 29.203125 -17.203125 C 28.679688 -16.222656 28.144531 -15.242188 27.59375 -14.265625 C 27.414062 -13.828125 27.21875 -13.378906 27 -12.921875 C 26.789062 -12.460938 26.59375 -11.988281 26.40625 -11.5 C 26.28125 -11.25 26.15625 -10.941406 26.03125 -10.578125 C 25.914062 -10.210938 25.859375 -9.84375 25.859375 -9.46875 C 25.859375 -8.425781 26.316406 -7.90625 27.234375 -7.90625 C 27.972656 -7.90625 28.785156 -8.210938 29.671875 -8.828125 C 30.554688 -9.441406 31.1875 -9.90625 31.5625 -10.21875 C 33.394531 -11.75 34.988281 -13.492188 36.34375 -15.453125 C 37.019531 -16.429688 37.660156 -17.441406 38.265625 -18.484375 C 38.515625 -18.921875 38.757812 -19.398438 39 -19.921875 C 39.25 -20.441406 39.53125 -20.851562 39.84375 -21.15625 C 40.019531 -21.40625 40.382812 -21.53125 40.9375 -21.53125 C 41.550781 -21.53125 42.101562 -21.253906 42.59375 -20.703125 C 43.144531 -20.148438 43.453125 -19.566406 43.515625 -18.953125 C 43.515625 -18.640625 43.453125 -18.332031 43.328125 -18.03125 C 42.898438 -17.113281 42.347656 -16.132812 41.671875 -15.09375 C 40.992188 -14.050781 40.320312 -13.097656 39.65625 -12.234375 C 38.300781 -10.335938 36.828125 -8.648438 35.234375 -7.171875 C 34.441406 -6.378906 33.535156 -5.660156 32.515625 -5.015625 C 31.503906 -4.367188 30.476562 -3.863281 29.4375 -3.5 C 28.457031 -3.125 27.507812 -2.9375 26.59375 -2.9375 C 25.300781 -2.9375 24.195312 -3.304688 23.28125 -4.046875 C 21.6875 -5.335938 20.890625 -7.023438 20.890625 -9.109375 C 20.890625 -10.023438 21.054688 -11.15625 21.390625 -12.5 C 21.722656 -13.851562 22.109375 -14.929688 22.546875 -15.734375 C 23.035156 -16.710938 23.539062 -17.722656 24.0625 -18.765625 C 24.582031 -19.804688 25.085938 -20.847656 25.578125 -21.890625 C 25.703125 -22.203125 25.867188 -22.585938 26.078125 -23.046875 C 26.296875 -23.503906 26.40625 -23.945312 26.40625 -24.375 C 26.40625 -25.175781 26.066406 -25.578125 25.390625 -25.578125 C 25.148438 -25.578125 24.875 -25.515625 24.5625 -25.390625 C 24.257812 -25.265625 24.015625 -25.144531 23.828125 -25.03125 C 22.785156 -24.476562 21.878906 -23.832031 21.109375 -23.09375 C 20.347656 -22.351562 19.566406 -21.585938 18.765625 -20.796875 C 17.171875 -19.203125 15.648438 -17.53125 14.203125 -15.78125 C 12.765625 -14.03125 11.40625 -12.234375 10.125 -10.390625 C 9.445312 -9.410156 8.722656 -8.382812 7.953125 -7.3125 C 7.191406 -6.238281 6.503906 -5.210938 5.890625 -4.234375 C 5.578125 -3.804688 5.28125 -3.34375 5 -2.84375 C 4.726562 -2.351562 4.441406 -1.894531 4.140625 -1.46875 C 3.835938 -1.101562 3.53125 -0.765625 3.21875 -0.453125 C 2.914062 -0.148438 2.519531 0 2.03125 0 Z M 17.390625 -34.125 C 17.566406 -34.125 17.789062 -34.25 18.0625 -34.5 C 18.34375 -34.75 18.578125 -34.960938 18.765625 -35.140625 C 19.628906 -36.066406 20.625 -37.234375 21.75 -38.640625 C 22.882812 -40.046875 23.820312 -41.269531 24.5625 -42.3125 C 24.988281 -42.925781 25.398438 -43.523438 25.796875 -44.109375 C 26.203125 -44.691406 26.554688 -45.289062 26.859375 -45.90625 C 27.046875 -46.21875 27.226562 -46.539062 27.40625 -46.875 C 27.59375 -47.207031 27.75 -47.53125 27.875 -47.84375 C 28.300781 -48.820312 28.515625 -49.648438 28.515625 -50.328125 C 28.515625 -50.753906 28.332031 -50.96875 27.96875 -50.96875 C 27.664062 -50.96875 27.359375 -50.828125 27.046875 -50.546875 C 26.742188 -50.273438 26.5 -50.046875 26.3125 -49.859375 C 25.882812 -49.367188 25.453125 -48.847656 25.015625 -48.296875 C 24.585938 -47.742188 24.191406 -47.191406 23.828125 -46.640625 C 23.023438 -45.597656 22.253906 -44.476562 21.515625 -43.28125 C 20.785156 -42.082031 20.113281 -40.90625 19.5 -39.75 C 19.195312 -39.132812 18.785156 -38.347656 18.265625 -37.390625 C 17.742188 -36.441406 17.390625 -35.628906 17.203125 -34.953125 C 17.140625 -34.710938 17.109375 -34.53125 17.109375 -34.40625 C 17.109375 -34.21875 17.203125 -34.125 17.390625 -34.125 Z M 17.390625 -34.125 "/></g></g></g></svg>